<svg width="18" height="22" viewBox="0 0 18 22" fill="none" xmlns="http://www.w3.org/2000/svg">
<g clip-path="url(#clip0_128_42)">
<path fill-rule="evenodd" clip-rule="evenodd" d="M5.22361 12.7391H11.9848V14.3141H5.22361V12.7391Z" fill="url(#paint0_linear_128_42)"/>
<path fill-rule="evenodd" clip-rule="evenodd" d="M9.39192 10.146V16.9072L7.81692 16.9072L7.81692 10.146H9.39192Z" fill="url(#paint1_linear_128_42)"/>
<path fill-rule="evenodd" clip-rule="evenodd" d="M0.154297 0.494995H12.0323L17.8461 6.5498V21.495H0.154297V0.494995ZM1.7293 2.07V19.92H16.2711V7.18353L11.3611 2.07H1.7293Z" fill="url(#paint2_linear_128_42)"/>
<path fill-rule="evenodd" clip-rule="evenodd" d="M11.9842 1.07742V6.69011H17.3466V8.26511H10.4092V1.07742H11.9842Z" fill="url(#paint3_linear_128_42)"/>
</g>
<defs>
<linearGradient id="paint0_linear_128_42" x1="15.2038" y1="0.633155" x2="-0.801718" y2="17.3577" gradientUnits="userSpaceOnUse">
<stop stop-color="#FE58FF"/>
<stop offset="1" stop-color="#603587"/>
</linearGradient>
<linearGradient id="paint1_linear_128_42" x1="15.2038" y1="0.633155" x2="-0.801718" y2="17.3577" gradientUnits="userSpaceOnUse">
<stop stop-color="#FE58FF"/>
<stop offset="1" stop-color="#603587"/>
</linearGradient>
<linearGradient id="paint2_linear_128_42" x1="15.2038" y1="0.633155" x2="-0.801718" y2="17.3577" gradientUnits="userSpaceOnUse">
<stop stop-color="#FE58FF"/>
<stop offset="1" stop-color="#603587"/>
</linearGradient>
<linearGradient id="paint3_linear_128_42" x1="15.2038" y1="0.633155" x2="-0.801718" y2="17.3577" gradientUnits="userSpaceOnUse">
<stop stop-color="#FE58FF"/>
<stop offset="1" stop-color="#603587"/>
</linearGradient>
<clipPath id="clip0_128_42">
<rect width="17.6918" height="21" fill="white" transform="translate(0.154297 0.494995)"/>
</clipPath>
</defs>
</svg>
