<svg width="17" height="16" viewBox="0 0 17 16" fill="none" xmlns="http://www.w3.org/2000/svg">
<g clip-path="url(#clip0_144_164)">
<g clip-path="url(#clip1_144_164)">
<path d="M16.3299 8.18008C16.3299 7.65342 16.2833 7.15341 16.2033 6.66675H8.66992V9.67342H12.9833C12.7899 10.6601 12.2233 11.4934 11.3833 12.0601V14.0601H13.9566C15.4633 12.6667 16.3299 10.6134 16.3299 8.18008Z" fill="#4285F4"/>
<path d="M8.67027 15.9999C10.8303 15.9999 12.6369 15.2799 13.9569 14.0599L11.3836 12.0599C10.6636 12.5399 9.75027 12.8333 8.67027 12.8333C6.58361 12.8333 4.81694 11.4266 4.18361 9.52661H1.53027V11.5866C2.84361 14.1999 5.54361 15.9999 8.67027 15.9999Z" fill="#34A853"/>
<path d="M4.18326 9.52666C4.01659 9.04666 3.92992 8.53333 3.92992 8C3.92992 7.46666 4.02326 6.95333 4.18326 6.47333V4.41333H1.52992C0.983255 5.49333 0.669922 6.70666 0.669922 8C0.669922 9.29333 0.983255 10.5067 1.52992 11.5867L4.18326 9.52666Z" fill="#FBBC05"/>
<path d="M8.67027 3.16667C9.85027 3.16667 10.9036 3.57334 11.7369 4.36667L14.0169 2.08667C12.6369 0.793334 10.8303 0 8.67027 0C5.54361 0 2.84361 1.8 1.53027 4.41334L4.18361 6.47334C4.81694 4.57334 6.58361 3.16667 8.67027 3.16667Z" fill="#EA4335"/>
</g>
</g>
<defs>
<clipPath id="clip0_144_164">
<rect width="16" height="16" fill="white" transform="translate(0.5)"/>
</clipPath>
<clipPath id="clip1_144_164">
<rect width="16" height="16" fill="white" transform="translate(0.5)"/>
</clipPath>
</defs>
</svg>
